<mxfile host="app.diagrams.net" modified="2023-03-08T08:12:01.437Z" agent="5.0 (Windows NT 10.0; Win64; x64) AppleWebKit/537.36 (KHTML, like Gecko) Chrome/110.0.0.0 Safari/537.36" etag="wFxHMZ3vBzeyUIYMVk9j" version="21.0.2" type="github">
  <diagram name="第 1 页" id="WwtSetviC-H0IcuSuIGI">
    <mxGraphModel dx="1646" dy="756" grid="1" gridSize="10" guides="1" tooltips="1" connect="1" arrows="1" fold="1" page="1" pageScale="1" pageWidth="827" pageHeight="1169" math="0" shadow="0">
      <root>
        <mxCell id="0" />
        <mxCell id="1" parent="0" />
        <mxCell id="FmukmNJUYgUtUIVWGLxj-9" value="Plan" style="swimlane;fontStyle=1;align=center;verticalAlign=top;childLayout=stackLayout;horizontal=1;startSize=26;horizontalStack=0;resizeParent=1;resizeParentMax=0;resizeLast=0;collapsible=1;marginBottom=0;whiteSpace=wrap;html=1;fillColor=#FFE6CC;strokeColor=#d79b00;fillStyle=dashed;" vertex="1" parent="1">
          <mxGeometry x="120" y="140" width="190" height="190" as="geometry">
            <mxRectangle x="40" y="140" width="70" height="30" as="alternateBounds" />
          </mxGeometry>
        </mxCell>
        <mxCell id="FmukmNJUYgUtUIVWGLxj-10" value="+ fft_info&lt;br&gt;+ pass_list_&lt;br&gt;+ env_info_&lt;br&gt;&lt;br&gt;- buffer" style="text;strokeColor=none;fillColor=#FFE6CC;align=left;verticalAlign=top;spacingLeft=4;spacingRight=4;overflow=hidden;rotatable=0;points=[[0,0.5],[1,0.5]];portConstraint=eastwest;whiteSpace=wrap;html=1;fillStyle=dashed;" vertex="1" parent="FmukmNJUYgUtUIVWGLxj-9">
          <mxGeometry y="26" width="190" height="94" as="geometry" />
        </mxCell>
        <mxCell id="FmukmNJUYgUtUIVWGLxj-11" value="" style="line;strokeWidth=1;fillColor=#FFE6CC;align=left;verticalAlign=middle;spacingTop=-1;spacingLeft=3;spacingRight=3;rotatable=0;labelPosition=right;points=[];portConstraint=eastwest;strokeColor=inherit;fillStyle=dashed;" vertex="1" parent="FmukmNJUYgUtUIVWGLxj-9">
          <mxGeometry y="120" width="190" height="8" as="geometry" />
        </mxCell>
        <mxCell id="FmukmNJUYgUtUIVWGLxj-12" value="+ bake_plan()&lt;br&gt;+ bind_env()&lt;br style=&quot;border-color: var(--border-color);&quot;&gt;+ generate_kernel()&lt;br&gt;" style="text;strokeColor=none;fillColor=#FFE6CC;align=left;verticalAlign=top;spacingLeft=4;spacingRight=4;overflow=hidden;rotatable=0;points=[[0,0.5],[1,0.5]];portConstraint=eastwest;whiteSpace=wrap;html=1;fillStyle=dashed;" vertex="1" parent="FmukmNJUYgUtUIVWGLxj-9">
          <mxGeometry y="128" width="190" height="62" as="geometry" />
        </mxCell>
        <mxCell id="FmukmNJUYgUtUIVWGLxj-13" value="Pass" style="swimlane;fontStyle=1;align=center;verticalAlign=top;childLayout=stackLayout;horizontal=1;startSize=26;horizontalStack=0;resizeParent=1;resizeParentMax=0;resizeLast=0;collapsible=1;marginBottom=0;whiteSpace=wrap;html=1;fillColor=#FFE6CC;strokeColor=#d79b00;fillStyle=dashed;" vertex="1" parent="1">
          <mxGeometry x="500" y="140" width="190" height="190" as="geometry">
            <mxRectangle x="40" y="140" width="70" height="30" as="alternateBounds" />
          </mxGeometry>
        </mxCell>
        <mxCell id="FmukmNJUYgUtUIVWGLxj-14" value="+ kernel_info_&lt;br&gt;+ pass_info_&lt;br&gt;+ env_info_&lt;br&gt;&lt;br&gt;-&amp;nbsp; kernel_" style="text;strokeColor=none;fillColor=#FFE6CC;align=left;verticalAlign=top;spacingLeft=4;spacingRight=4;overflow=hidden;rotatable=0;points=[[0,0.5],[1,0.5]];portConstraint=eastwest;whiteSpace=wrap;html=1;fillStyle=dashed;" vertex="1" parent="FmukmNJUYgUtUIVWGLxj-13">
          <mxGeometry y="26" width="190" height="94" as="geometry" />
        </mxCell>
        <mxCell id="FmukmNJUYgUtUIVWGLxj-15" value="" style="line;strokeWidth=1;fillColor=#FFE6CC;align=left;verticalAlign=middle;spacingTop=-1;spacingLeft=3;spacingRight=3;rotatable=0;labelPosition=right;points=[];portConstraint=eastwest;strokeColor=inherit;fillStyle=dashed;" vertex="1" parent="FmukmNJUYgUtUIVWGLxj-13">
          <mxGeometry y="120" width="190" height="8" as="geometry" />
        </mxCell>
        <mxCell id="FmukmNJUYgUtUIVWGLxj-16" value="+ bake_pass()&lt;br&gt;+ bind_env()&lt;br style=&quot;border-color: var(--border-color);&quot;&gt;+ generate_kernel()" style="text;strokeColor=none;fillColor=#FFE6CC;align=left;verticalAlign=top;spacingLeft=4;spacingRight=4;overflow=hidden;rotatable=0;points=[[0,0.5],[1,0.5]];portConstraint=eastwest;whiteSpace=wrap;html=1;fillStyle=dashed;" vertex="1" parent="FmukmNJUYgUtUIVWGLxj-13">
          <mxGeometry y="128" width="190" height="62" as="geometry" />
        </mxCell>
        <mxCell id="FmukmNJUYgUtUIVWGLxj-17" value="Kernel" style="swimlane;fontStyle=1;align=center;verticalAlign=top;childLayout=stackLayout;horizontal=1;startSize=26;horizontalStack=0;resizeParent=1;resizeParentMax=0;resizeLast=0;collapsible=1;marginBottom=0;whiteSpace=wrap;html=1;fillStyle=dashed;fillColor=#FFE6CC;strokeColor=#d79b00;" vertex="1" parent="1">
          <mxGeometry x="890" y="130" width="190" height="210" as="geometry">
            <mxRectangle x="40" y="140" width="70" height="30" as="alternateBounds" />
          </mxGeometry>
        </mxCell>
        <mxCell id="FmukmNJUYgUtUIVWGLxj-18" value="+ kernel_info_&lt;br&gt;+ pass_info_&lt;br&gt;+ env_info_&lt;br&gt;+&amp;nbsp; kernel_config_&lt;br&gt;+&amp;nbsp; maro_config_&lt;br&gt;+&amp;nbsp; kernel_source_" style="text;strokeColor=none;fillColor=#FFE6CC;align=left;verticalAlign=top;spacingLeft=4;spacingRight=4;overflow=hidden;rotatable=0;points=[[0,0.5],[1,0.5]];portConstraint=eastwest;whiteSpace=wrap;html=1;fillStyle=dashed;" vertex="1" parent="FmukmNJUYgUtUIVWGLxj-17">
          <mxGeometry y="26" width="190" height="94" as="geometry" />
        </mxCell>
        <mxCell id="FmukmNJUYgUtUIVWGLxj-19" value="" style="line;strokeWidth=1;fillColor=#FFE6CC;align=left;verticalAlign=middle;spacingTop=-1;spacingLeft=3;spacingRight=3;rotatable=0;labelPosition=right;points=[];portConstraint=eastwest;strokeColor=inherit;fillStyle=dashed;" vertex="1" parent="FmukmNJUYgUtUIVWGLxj-17">
          <mxGeometry y="120" width="190" height="8" as="geometry" />
        </mxCell>
        <mxCell id="FmukmNJUYgUtUIVWGLxj-20" value="+ bake_kernel()&lt;br&gt;+ generate_souce()&lt;br&gt;+ bind_env()" style="text;strokeColor=none;fillColor=#FFE6CC;align=left;verticalAlign=top;spacingLeft=4;spacingRight=4;overflow=hidden;rotatable=0;points=[[0,0.5],[1,0.5]];portConstraint=eastwest;whiteSpace=wrap;html=1;fillStyle=dashed;" vertex="1" parent="FmukmNJUYgUtUIVWGLxj-17">
          <mxGeometry y="128" width="190" height="82" as="geometry" />
        </mxCell>
        <mxCell id="FmukmNJUYgUtUIVWGLxj-21" value="MicroPassConfig" style="swimlane;fontStyle=1;align=center;verticalAlign=top;childLayout=stackLayout;horizontal=1;startSize=26;horizontalStack=0;resizeParent=1;resizeParentMax=0;resizeLast=0;collapsible=1;marginBottom=0;whiteSpace=wrap;html=1;fillColor=#e1d5e7;strokeColor=#9673a6;fillStyle=dashed;" vertex="1" parent="1">
          <mxGeometry x="120" y="560" width="190" height="190" as="geometry">
            <mxRectangle x="40" y="140" width="70" height="30" as="alternateBounds" />
          </mxGeometry>
        </mxCell>
        <mxCell id="FmukmNJUYgUtUIVWGLxj-22" value="+ mirco_pass_info_&lt;br&gt;+ kernel_info_&lt;br&gt;" style="text;strokeColor=#9673a6;fillColor=#e1d5e7;align=left;verticalAlign=top;spacingLeft=4;spacingRight=4;overflow=hidden;rotatable=0;points=[[0,0.5],[1,0.5]];portConstraint=eastwest;whiteSpace=wrap;html=1;fillStyle=dashed;" vertex="1" parent="FmukmNJUYgUtUIVWGLxj-21">
          <mxGeometry y="26" width="190" height="94" as="geometry" />
        </mxCell>
        <mxCell id="FmukmNJUYgUtUIVWGLxj-23" value="" style="line;strokeWidth=1;fillColor=#e1d5e7;align=left;verticalAlign=middle;spacingTop=-1;spacingLeft=3;spacingRight=3;rotatable=0;labelPosition=right;points=[];portConstraint=eastwest;strokeColor=#9673a6;fillStyle=dashed;" vertex="1" parent="FmukmNJUYgUtUIVWGLxj-21">
          <mxGeometry y="120" width="190" height="8" as="geometry" />
        </mxCell>
        <mxCell id="FmukmNJUYgUtUIVWGLxj-24" value="+ generate_cl_source()&lt;br&gt;" style="text;strokeColor=#9673a6;fillColor=#e1d5e7;align=left;verticalAlign=top;spacingLeft=4;spacingRight=4;overflow=hidden;rotatable=0;points=[[0,0.5],[1,0.5]];portConstraint=eastwest;whiteSpace=wrap;html=1;fillStyle=dashed;" vertex="1" parent="FmukmNJUYgUtUIVWGLxj-21">
          <mxGeometry y="128" width="190" height="62" as="geometry" />
        </mxCell>
        <mxCell id="FmukmNJUYgUtUIVWGLxj-29" value="TransformConfig" style="swimlane;fontStyle=1;align=center;verticalAlign=top;childLayout=stackLayout;horizontal=1;startSize=26;horizontalStack=0;resizeParent=1;resizeParentMax=0;resizeLast=0;collapsible=1;marginBottom=0;whiteSpace=wrap;html=1;fillColor=#e1d5e7;strokeColor=#9673a6;fillStyle=dashed;" vertex="1" parent="1">
          <mxGeometry x="400" y="560" width="190" height="190" as="geometry">
            <mxRectangle x="40" y="140" width="70" height="30" as="alternateBounds" />
          </mxGeometry>
        </mxCell>
        <mxCell id="FmukmNJUYgUtUIVWGLxj-30" value="+ mirco_pass_info_&lt;br&gt;+ kernel_info_&lt;br&gt;" style="text;strokeColor=#9673a6;fillColor=#e1d5e7;align=left;verticalAlign=top;spacingLeft=4;spacingRight=4;overflow=hidden;rotatable=0;points=[[0,0.5],[1,0.5]];portConstraint=eastwest;whiteSpace=wrap;html=1;fillStyle=dashed;" vertex="1" parent="FmukmNJUYgUtUIVWGLxj-29">
          <mxGeometry y="26" width="190" height="94" as="geometry" />
        </mxCell>
        <mxCell id="FmukmNJUYgUtUIVWGLxj-31" value="" style="line;strokeWidth=1;fillColor=#e1d5e7;align=left;verticalAlign=middle;spacingTop=-1;spacingLeft=3;spacingRight=3;rotatable=0;labelPosition=right;points=[];portConstraint=eastwest;strokeColor=#9673a6;fillStyle=dashed;" vertex="1" parent="FmukmNJUYgUtUIVWGLxj-29">
          <mxGeometry y="120" width="190" height="8" as="geometry" />
        </mxCell>
        <mxCell id="FmukmNJUYgUtUIVWGLxj-32" value="+ generate_cl_source()&lt;br&gt;" style="text;strokeColor=#9673a6;fillColor=#e1d5e7;align=left;verticalAlign=top;spacingLeft=4;spacingRight=4;overflow=hidden;rotatable=0;points=[[0,0.5],[1,0.5]];portConstraint=eastwest;whiteSpace=wrap;html=1;fillStyle=dashed;" vertex="1" parent="FmukmNJUYgUtUIVWGLxj-29">
          <mxGeometry y="128" width="190" height="62" as="geometry" />
        </mxCell>
        <mxCell id="FmukmNJUYgUtUIVWGLxj-33" value="KernelConfig" style="swimlane;fontStyle=1;align=center;verticalAlign=top;childLayout=stackLayout;horizontal=1;startSize=26;horizontalStack=0;resizeParent=1;resizeParentMax=0;resizeLast=0;collapsible=1;marginBottom=0;whiteSpace=wrap;html=1;fillStyle=dashed;fillColor=#B9E0A5;" vertex="1" parent="1">
          <mxGeometry x="270" y="380" width="190" height="150" as="geometry">
            <mxRectangle x="40" y="140" width="70" height="30" as="alternateBounds" />
          </mxGeometry>
        </mxCell>
        <mxCell id="FmukmNJUYgUtUIVWGLxj-34" value="+ kernel_info_&lt;br&gt;+ pass_info_" style="text;strokeColor=none;fillColor=#B9E0A5;align=left;verticalAlign=top;spacingLeft=4;spacingRight=4;overflow=hidden;rotatable=0;points=[[0,0.5],[1,0.5]];portConstraint=eastwest;whiteSpace=wrap;html=1;fillStyle=dashed;" vertex="1" parent="FmukmNJUYgUtUIVWGLxj-33">
          <mxGeometry y="26" width="190" height="54" as="geometry" />
        </mxCell>
        <mxCell id="FmukmNJUYgUtUIVWGLxj-35" value="" style="line;strokeWidth=1;fillColor=#B9E0A5;align=left;verticalAlign=middle;spacingTop=-1;spacingLeft=3;spacingRight=3;rotatable=0;labelPosition=right;points=[];portConstraint=eastwest;strokeColor=inherit;fillStyle=dashed;" vertex="1" parent="FmukmNJUYgUtUIVWGLxj-33">
          <mxGeometry y="80" width="190" height="8" as="geometry" />
        </mxCell>
        <mxCell id="FmukmNJUYgUtUIVWGLxj-36" value="+ generate_cl_source()&lt;br&gt;" style="text;strokeColor=none;fillColor=#B9E0A5;align=left;verticalAlign=top;spacingLeft=4;spacingRight=4;overflow=hidden;rotatable=0;points=[[0,0.5],[1,0.5]];portConstraint=eastwest;whiteSpace=wrap;html=1;fillStyle=dashed;" vertex="1" parent="FmukmNJUYgUtUIVWGLxj-33">
          <mxGeometry y="88" width="190" height="62" as="geometry" />
        </mxCell>
        <mxCell id="FmukmNJUYgUtUIVWGLxj-37" value="MarcoConfig" style="swimlane;fontStyle=1;align=center;verticalAlign=top;childLayout=stackLayout;horizontal=1;startSize=26;horizontalStack=0;resizeParent=1;resizeParentMax=0;resizeLast=0;collapsible=1;marginBottom=0;whiteSpace=wrap;html=1;fillColor=#B9E0A5;fillStyle=dashed;" vertex="1" parent="1">
          <mxGeometry x="730" y="380" width="190" height="150" as="geometry">
            <mxRectangle x="40" y="140" width="70" height="30" as="alternateBounds" />
          </mxGeometry>
        </mxCell>
        <mxCell id="FmukmNJUYgUtUIVWGLxj-38" value="+ kernel_info_&lt;br&gt;+ pass_info_" style="text;strokeColor=none;fillColor=#B9E0A5;align=left;verticalAlign=top;spacingLeft=4;spacingRight=4;overflow=hidden;rotatable=0;points=[[0,0.5],[1,0.5]];portConstraint=eastwest;whiteSpace=wrap;html=1;fillStyle=dashed;" vertex="1" parent="FmukmNJUYgUtUIVWGLxj-37">
          <mxGeometry y="26" width="190" height="54" as="geometry" />
        </mxCell>
        <mxCell id="FmukmNJUYgUtUIVWGLxj-39" value="" style="line;strokeWidth=1;fillColor=#B9E0A5;align=left;verticalAlign=middle;spacingTop=-1;spacingLeft=3;spacingRight=3;rotatable=0;labelPosition=right;points=[];portConstraint=eastwest;strokeColor=inherit;fillStyle=dashed;" vertex="1" parent="FmukmNJUYgUtUIVWGLxj-37">
          <mxGeometry y="80" width="190" height="8" as="geometry" />
        </mxCell>
        <mxCell id="FmukmNJUYgUtUIVWGLxj-40" value="+ generate_cl_source()&lt;br&gt;" style="text;strokeColor=none;fillColor=#B9E0A5;align=left;verticalAlign=top;spacingLeft=4;spacingRight=4;overflow=hidden;rotatable=0;points=[[0,0.5],[1,0.5]];portConstraint=eastwest;whiteSpace=wrap;html=1;fillStyle=dashed;" vertex="1" parent="FmukmNJUYgUtUIVWGLxj-37">
          <mxGeometry y="88" width="190" height="62" as="geometry" />
        </mxCell>
        <mxCell id="FmukmNJUYgUtUIVWGLxj-46" value="BasicFFTConfig" style="swimlane;fontStyle=1;align=center;verticalAlign=top;childLayout=stackLayout;horizontal=1;startSize=26;horizontalStack=0;resizeParent=1;resizeParentMax=0;resizeLast=0;collapsible=1;marginBottom=0;whiteSpace=wrap;html=1;fillColor=#e1d5e7;strokeColor=#9673a6;fillStyle=dashed;" vertex="1" parent="1">
          <mxGeometry x="637" y="570" width="190" height="52" as="geometry">
            <mxRectangle x="40" y="140" width="70" height="30" as="alternateBounds" />
          </mxGeometry>
        </mxCell>
        <mxCell id="FmukmNJUYgUtUIVWGLxj-49" value="+ generate_cl_source()&lt;br&gt;" style="text;strokeColor=#9673a6;fillColor=#e1d5e7;align=left;verticalAlign=top;spacingLeft=4;spacingRight=4;overflow=hidden;rotatable=0;points=[[0,0.5],[1,0.5]];portConstraint=eastwest;whiteSpace=wrap;html=1;fillStyle=dashed;" vertex="1" parent="FmukmNJUYgUtUIVWGLxj-46">
          <mxGeometry y="26" width="190" height="26" as="geometry" />
        </mxCell>
        <mxCell id="FmukmNJUYgUtUIVWGLxj-50" value="TwiddleTableConfig" style="swimlane;fontStyle=1;align=center;verticalAlign=top;childLayout=stackLayout;horizontal=1;startSize=26;horizontalStack=0;resizeParent=1;resizeParentMax=0;resizeLast=0;collapsible=1;marginBottom=0;whiteSpace=wrap;html=1;fillColor=#e1d5e7;strokeColor=#9673a6;fillStyle=dashed;" vertex="1" parent="1">
          <mxGeometry x="860" y="570" width="190" height="52" as="geometry">
            <mxRectangle x="40" y="140" width="70" height="30" as="alternateBounds" />
          </mxGeometry>
        </mxCell>
        <mxCell id="FmukmNJUYgUtUIVWGLxj-51" value="+ generate_cl_source()&lt;br&gt;" style="text;strokeColor=#9673a6;fillColor=#e1d5e7;align=left;verticalAlign=top;spacingLeft=4;spacingRight=4;overflow=hidden;rotatable=0;points=[[0,0.5],[1,0.5]];portConstraint=eastwest;whiteSpace=wrap;html=1;fillStyle=dashed;" vertex="1" parent="FmukmNJUYgUtUIVWGLxj-50">
          <mxGeometry y="26" width="190" height="26" as="geometry" />
        </mxCell>
      </root>
    </mxGraphModel>
  </diagram>
</mxfile>
